<?xml version="1.0" standalone="no"?>
<!DOCTYPE svg PUBLIC "-//W3C//DTD SVG 20010904//EN"
 "http://www.w3.org/TR/2001/REC-SVG-20010904/DTD/svg10.dtd">
<svg version="1.0" xmlns="http://www.w3.org/2000/svg"
 width="590.000000pt" height="485.000000pt" viewBox="0 0 590.000000 485.000000"
 preserveAspectRatio="xMidYMid meet">

<g transform="translate(0.000000,485.000000) scale(0.100000,-0.100000)"
fill="#000000" stroke="none">
<path d="M3165 4560 c-12 -4 -26 -14 -33 -23 -14 -16 -952 -4036 -952 -4078 0
-43 32 -60 181 -95 147 -34 178 -34 197 3 6 10 222 931 482 2047 504 2168 483
2062 428 2086 -13 5 -75 21 -138 35 -63 14 -122 28 -130 30 -8 2 -24 0 -35 -5z"/>
<path d="M858 3269 l-578 -760 578 -760 577 -759 358 0 358 0 -78 103 c-42 56
-300 394 -571 752 -272 357 -496 654 -498 660 -2 5 246 339 552 740 306 402
565 742 576 758 l19 27 -358 0 -358 0 -577 -761z"/>
<path d="M3548 4003 c11 -16 270 -356 576 -758 306 -401 554 -735 552 -741 -2
-5 -226 -302 -498 -660 -271 -357 -529 -695 -571 -751 l-78 -103 358 0 358 0
578 760 577 759 -577 760 -578 761 -358 0 -358 0 19 -27z"/>
</g>
</svg>
